<svg viewBox="326.7942 266.5608 473.4082 73.875" width="5000" height="780.2463075206556" xmlns="http://www.w3.org/2000/svg" xmlns:xlink="http://www.w3.org/1999/xlink" preserveAspectRatio="none"><defs></defs><style>.aal9S-j1DK0filter-floo {flood-color:#000000;flood-opacity:1;}.aD6z1nYkhcolor {fill:#CECECE;fill-opacity:1;}.ao6g4-96IA0filter-floo {flood-color:#000000;flood-opacity:1;}.aznsb8sFAYcolors-0 {fill:#4D4D4D;fill-opacity:0.64;}.aznsb8sFAYcolors-1 {fill:#CECECE;fill-opacity:0.64;}.icon3 {fill:#4D4D4D;fill-opacity:1;}.icon3-floo {flood-color:#4D4D4D;flood-opacity:1;}</style><defs>
      <filter
        x="-1000"
        y="-1000"
        width="5000"
        height="5000"
        id="o6g4-96IA"
        filterUnits="userSpaceOnUse"
        primitiveUnits="userSpaceOnUse"
        color-interpolation-filters="sRGB">
        <feMerge><feMergeNode in="SourceGraphic" /></feMerge>
      </filter>
      <filter
        x="-1000"
        y="-1000"
        width="5000"
        height="5000"
        id="sGApjYY84"
        filterUnits="userSpaceOnUse"
        primitiveUnits="userSpaceOnUse"
        color-interpolation-filters="sRGB">
        <feMerge><feMergeNode in="SourceGraphic" /></feMerge>
      </filter>
      <filter
        x="-1000"
        y="-1000"
        width="5000"
        height="5000"
        id="al9S-j1DK"
        filterUnits="userSpaceOnUse"
        primitiveUnits="userSpaceOnUse"
        color-interpolation-filters="sRGB">
        <feMerge><feMergeNode in="SourceGraphic" /></feMerge>
      </filter></defs><g opacity="1" transform="rotate(0 326.7942 288.9183)">
<svg width="128.802" height="29.16" x="326.7942" y="288.9183" version="1.1" preserveAspectRatio="none" viewBox="-0.36 -28 123.67999999999999 28">
  <g transform="matrix(1 0 0 1 0 0)" class="aD6z1nYkhcolor"><path d="M24.24 0L21.76-6L8.76-6L6.28 0L-0.36 0L12.12-28L18.52-28L31.04 0L24.24 0ZM10.84-10.92L19.72-10.92L15.28-21.64L10.84-10.92Z M65.52 0L59.44 0L59.40-16.80L51.16-2.96L48.24-2.96L40.04-16.44L40.04 0L33.96 0L33.96-28L39.32-28L49.80-10.60L60.12-28L65.44-28L65.52 0Z M93.08 0L90.60-6L77.60-6L75.12 0L68.48 0L80.96-28L87.36-28L99.88 0L93.08 0ZM79.68-10.92L88.56-10.92L84.12-21.64L79.68-10.92Z M102.80 0L102.80-28L109.28-28L109.28-5.28L123.32-5.28L123.32 0L102.80 0Z"/></g>
</svg>
</g><g opacity="1" transform="rotate(0 462.0761 288.9183)">
<svg width="244.7181" height="29.16" x="462.0761" y="288.9183" version="1.1" preserveAspectRatio="none" viewBox="3.32 -28.48 243.04 28.96">
  <g transform="matrix(1 0 0 1 0 0)" class="icon3"><path d="M15.44-28Q19.16-28 21.90-26.76Q24.64-25.52 26.12-23.24Q27.60-20.96 27.60-17.84L27.60-17.84Q27.60-14.76 26.12-12.46Q24.64-10.16 21.90-8.94Q19.16-7.72 15.44-7.72L15.44-7.72L9.80-7.72L9.80 0L3.32 0L3.32-28L15.44-28ZM15.08-13Q18-13 19.52-14.26Q21.04-15.52 21.04-17.84L21.04-17.84Q21.04-20.20 19.52-21.46Q18-22.72 15.08-22.72L15.08-22.72L9.80-22.72L9.80-13L15.08-13Z M51.40-28L57.88-28L57.88 0L51.40 0L51.40-11.48L38.68-11.48L38.68 0L32.20 0L32.20-28L38.68-28L38.68-16.96L51.40-16.96L51.40-28Z M85.44 0L82.96-6L69.96-6L67.48 0L60.84 0L73.32-28L79.72-28L92.24 0L85.44 0ZM72.04-10.92L80.92-10.92L76.48-21.64L72.04-10.92Z M119.96 0L113 0L107.60-7.80L107.28-7.80L101.64-7.80L101.64 0L95.16 0L95.16-28L107.28-28Q111-28 113.74-26.76Q116.48-25.52 117.96-23.24Q119.44-20.96 119.44-17.84L119.44-17.84Q119.44-14.72 117.94-12.46Q116.44-10.20 113.68-9L113.68-9L119.96 0ZM112.88-17.84Q112.88-20.20 111.36-21.46Q109.84-22.72 106.92-22.72L106.92-22.72L101.64-22.72L101.64-12.96L106.92-12.96Q109.84-12.96 111.36-14.24Q112.88-15.52 112.88-17.84L112.88-17.84Z M156.12 0L150.04 0L150-16.80L141.76-2.96L138.84-2.96L130.64-16.44L130.64 0L124.56 0L124.56-28L129.92-28L140.40-10.60L150.72-28L156.04-28L156.12 0Z M183.68 0L181.20-6L168.20-6L165.72 0L159.08 0L171.56-28L177.96-28L190.48 0L183.68 0ZM170.28-10.92L179.16-10.92L174.72-21.64L170.28-10.92Z M206.40 0.48Q202.12 0.48 198.66-1.38Q195.20-3.24 193.22-6.54Q191.24-9.84 191.24-14L191.24-14Q191.24-18.16 193.22-21.46Q195.20-24.76 198.66-26.62Q202.12-28.48 206.44-28.48L206.44-28.48Q210.08-28.48 213.02-27.20Q215.96-25.92 217.96-23.52L217.96-23.52L213.80-19.68Q210.96-22.96 206.76-22.96L206.76-22.96Q204.16-22.96 202.12-21.82Q200.08-20.68 198.94-18.64Q197.80-16.60 197.80-14L197.80-14Q197.80-11.40 198.94-9.36Q200.08-7.32 202.12-6.18Q204.16-5.04 206.76-5.04L206.76-5.04Q210.96-5.04 213.80-8.36L213.80-8.36L217.96-4.52Q215.96-2.08 213.00-0.80Q210.04 0.48 206.40 0.48L206.40 0.48Z M246.36-28L235.48-9.92L235.48 0L229.00 0L229.00-10L218.16-28L225.04-28L232.52-15.56L240.00-28L246.36-28Z"/></g>
</svg>
</g><g opacity="1" transform="rotate(0 719.7942 266.5608)">
<svg width="80.4082" height="73.875" x="719.7942" y="266.5608" version="1.1" preserveAspectRatio="none" viewBox="20 26.5 160 147">
  <g transform="matrix(1 0 0 1 0 0)" ><g><path d="M111.1 173.5H57.6c-1.2 0-2.2-1-2.2-2.2L86.7 28.7c0-1.2 1-2.2 2.2-2.2h53.5c1.2 0 2.2 1 2.2 2.2l-31.3 142.6c0 1.2-1 2.2-2.2 2.2z" data-color="1" class="aznsb8sFAYcolors-0"></path><path d="M71 71.1h-8.9l-12.7 57.8h8.9L71 71.1z" data-color="2" class="aznsb8sFAYcolors-1"></path><path d="M34.5 128.9h8.6l12.7-57.8h-8.6l-12.7 57.8z" data-color="2" class="aznsb8sFAYcolors-1"></path><path d="M40.9 71.1h-6.1c-1.2 0-2.2 1-2.2 2.2L20 126.7c0 1.2 1 2.2 2.2 2.2h6l12.7-57.8z" data-color="2" class="aznsb8sFAYcolors-1"></path><path d="M177.8 71.1H77.3l-12.7 57.8h100.7c1.2 0 2.2-1 2.2-2.2L180 73.3c0-1.2-1-2.2-2.2-2.2z" data-color="2" class="aznsb8sFAYcolors-1"></path></g></g>
</svg>
</g></svg>